<svg width="38" height="43" viewBox="0 0 38 43" fill="none" xmlns="http://www.w3.org/2000/svg">
<path d="M4.46284 18.1758H2.10811C1.49616 18.1758 1 18.6719 1 19.2839C1 19.8958 1.49616 20.392 2.10811 20.392H4.46284C5.07479 20.392 5.57095 19.8958 5.57095 19.2839C5.57095 18.6719 5.07479 18.1758 4.46284 18.1758Z" fill="black" stroke="black" stroke-width="0.675676"/>
<path d="M6.97961 10.9074L4.94027 9.73005C4.41032 9.42435 3.73257 9.60566 3.42646 10.1358C3.12048 10.6657 3.30207 11.3435 3.83216 11.6496L5.8715 12.8269C6.04603 12.9276 6.23648 12.9754 6.42445 12.9754C6.80744 12.9754 7.1799 12.7767 7.38531 12.4212C7.69129 11.8913 7.50956 11.2135 6.97961 10.9074Z" fill="black" stroke="black" stroke-width="0.675676"/>
<path d="M10.8736 6.97942C11.0788 7.33485 11.4513 7.53362 11.8344 7.53362C12.0223 7.53362 12.2129 7.48569 12.3874 7.38513C12.9173 7.07902 13.0991 6.40127 12.7931 5.87132L11.6157 3.83198C11.3096 3.30217 10.6323 3.12058 10.1019 3.42628C9.57196 3.73239 9.39023 4.41014 9.6962 4.94009L10.8736 6.97942Z" fill="black" stroke="black" stroke-width="0.675676"/>
<path d="M19.2377 5.57095C19.8497 5.57095 20.3459 5.07479 20.3459 4.46284V2.10811C20.3459 1.49616 19.8497 1 19.2377 1C18.6258 1 18.1296 1.49616 18.1296 2.10811V4.46284C18.1296 5.07479 18.6258 5.57095 19.2377 5.57095Z" fill="black" stroke="black" stroke-width="0.675676"/>
<path d="M26.1171 7.40182C26.2916 7.50252 26.4821 7.55031 26.67 7.55031C27.053 7.55031 27.4255 7.35154 27.6308 6.99612L28.8081 4.95678C29.1141 4.42683 28.9325 3.74908 28.4024 3.44297C27.8725 3.13727 27.1947 3.31844 26.8886 3.84867L25.7112 5.88801C25.4054 6.41796 25.5871 7.09571 26.1171 7.40182Z" fill="black" stroke="black" stroke-width="0.675676"/>
<path d="M35.0782 10.1187C34.7722 9.58885 34.0947 9.40712 33.5643 9.71296L31.525 10.8903C30.9951 11.1964 30.8133 11.8742 31.1193 12.4041C31.3246 12.7596 31.697 12.9583 32.08 12.9583C32.2679 12.9583 32.4584 12.9104 32.633 12.8098L34.6723 11.6325C35.2025 11.3264 35.3841 10.6486 35.0782 10.1187Z" fill="black" stroke="black" stroke-width="0.675676"/>
<path d="M36.4594 18.1758H34.1047C33.4927 18.1758 32.9966 18.6719 32.9966 19.2839C32.9966 19.8958 33.4927 20.392 34.1047 20.392H36.4594C37.0714 20.392 37.5675 19.8958 37.5675 19.2839C37.5675 18.6719 37.0714 18.1758 36.4594 18.1758Z" fill="black" stroke="black" stroke-width="0.675676"/>
<path d="M19.2915 7.81006C12.993 7.81006 7.91846 12.9159 7.91846 19.2144C7.91846 22.9801 9.68021 26.3184 12.589 28.3951V29.6027C12.589 31.6065 13.4845 33.4089 14.8461 34.6587H14.6667V39.7837H17.0676C17.0676 41.0077 18.0597 41.9999 19.2838 41.9999C20.5078 41.9999 21.5 41.0077 21.5 39.7837H23.8086V34.7845C25.3322 33.5313 26.1633 31.6755 26.1633 29.6027V28.2908C28.9336 26.2074 30.6779 22.9179 30.6779 19.2144C30.6779 12.9159 25.5902 7.81006 19.2915 7.81006ZM20.3458 24.1873V35.2127H18.1295V24.1873L14.7044 18.1756H23.863L20.3458 24.1873Z" fill="black" stroke="black" stroke-width="0.675676"/>
</svg>
