<svg width="50" height="50" viewBox="0 0 50 50" fill="none" xmlns="http://www.w3.org/2000/svg">
<path d="M39.3633 9.04998C36.4966 7.7389 33.452 6.78333 30.2743 6.25C29.8743 6.9389 29.4297 7.87221 29.1187 8.60556C25.7387 8.11665 22.383 8.11665 19.0498 8.60556C18.7387 7.87221 18.272 6.9389 17.8942 6.25C14.6943 6.78333 11.6498 7.7389 8.80315 9.04998C3.04761 17.5389 1.49204 25.8277 2.26982 34.0054C6.09202 36.7831 9.78096 38.4721 13.4054 39.5833C14.2943 38.3833 15.0943 37.0944 15.7832 35.7387C14.4721 35.25 13.2276 34.65 12.0276 33.9387C12.3387 33.7167 12.6499 33.4723 12.9388 33.2277C20.1832 36.539 28.0299 36.539 35.1853 33.2277C35.4964 33.4723 35.7853 33.7167 36.0964 33.9387C34.8964 34.65 33.652 35.25 32.341 35.7387C33.0297 37.0944 33.8299 38.3833 34.7187 39.5833C38.341 38.4721 42.052 36.7831 45.8543 34.0054C46.8097 24.539 44.341 16.3167 39.3633 9.04998ZM16.7832 28.961C14.6054 28.961 12.8276 26.9833 12.8276 24.561C12.8276 22.139 14.5609 20.1611 16.7832 20.1611C18.9831 20.1611 20.7831 22.139 20.7386 24.561C20.7386 26.9833 18.9831 28.961 16.7832 28.961ZM31.3853 28.961C29.2076 28.961 27.4276 26.9833 27.4276 24.561C27.4276 22.139 29.163 20.1611 31.3853 20.1611C33.5853 20.1611 35.3853 22.139 35.341 24.561C35.341 26.9833 33.6076 28.961 31.3853 28.961Z" fill="white"/>
</svg>
