<svg width="35" height="35" viewBox="0 0 35 35" fill="none" xmlns="http://www.w3.org/2000/svg">
<g clip-path="url(#clip0_236_427)">
<path d="M35 15.3098C35 14.3916 34.2532 13.6451 33.335 13.6451H30.6877C30.4107 12.6925 30.0304 11.7731 29.5516 10.9009L31.4225 9.02925C31.7317 8.71968 31.9103 8.2907 31.9103 7.8516C31.9103 7.40615 31.7373 6.9884 31.4225 6.67396L28.3257 3.57674C27.7219 2.97219 26.5764 2.97107 25.9711 3.57674L24.0995 5.4484C23.2284 4.96925 22.3079 4.58893 21.3549 4.31155V1.66503C21.3549 0.746791 20.6081 0 19.6906 0H15.3098C14.3916 0 13.6451 0.746791 13.6451 1.66503V4.31193C12.6921 4.5893 11.7716 4.96963 10.9002 5.44877L9.0285 3.57711C8.39963 2.94861 7.30321 2.94861 6.67471 3.57711L3.57674 6.67433C2.92765 7.32342 2.92765 8.37941 3.57674 9.0285L5.44802 10.9002C4.96925 11.7724 4.58893 12.6925 4.31155 13.6451H1.66503C0.746791 13.6451 0 14.3919 0 15.3098V19.6898C0 20.6081 0.746791 21.3545 1.66503 21.3545H4.31193C4.58893 22.3072 4.96963 23.2273 5.4484 24.0991L3.57749 25.9704C3.26791 26.2799 3.08973 26.7093 3.08973 27.148C3.08973 27.5931 3.26267 28.0116 3.57711 28.3257L6.67433 31.4225C7.2785 32.0271 8.42396 32.0286 9.02888 31.4225L10.9005 29.5509C11.772 30.0296 12.6921 30.4107 13.6455 30.6877V33.3346C13.6455 34.2528 14.3923 34.9996 15.3102 34.9996H19.6906C20.6088 34.9996 21.3549 34.2528 21.3549 33.3346V30.6877C22.3079 30.4107 23.2284 30.0304 24.0995 29.5509L25.9711 31.4225C26.6004 32.0514 27.696 32.0514 28.3249 31.4225L31.4225 28.3257C32.0716 27.6766 32.0716 26.6206 31.4225 25.9715L29.5516 24.0995C30.0304 23.2276 30.4107 22.3075 30.6877 21.3549H33.3346C34.2528 21.3549 34.9996 20.6081 34.9996 19.6906L35 15.3098ZM23.563 17.5C23.563 20.8435 20.8432 23.563 17.5 23.563C14.1568 23.563 11.437 20.8432 11.437 17.5C11.437 14.1568 14.1568 11.437 17.5 11.437C20.8435 11.437 23.563 14.1568 23.563 17.5Z" fill="#361E05" stroke="#361E05"/>
</g>
<defs>
<clipPath id="clip0_236_427">
<rect width="35" height="35" fill="white"/>
</clipPath>
</defs>
</svg>
