<svg width="50" height="50" viewBox="0 0 50 50" fill="none" xmlns="http://www.w3.org/2000/svg">
<g clip-path="url(#clip0_21_677)">
<path d="M37.5001 4.16675H12.5001C7.91675 4.16675 4.16675 7.91675 4.16675 12.5001V37.5001C4.16675 42.0834 7.91675 45.8334 12.5001 45.8334H37.5001C42.0834 45.8334 45.8334 42.0834 45.8334 37.5001V12.5001C45.8334 7.91675 42.0834 4.16675 37.5001 4.16675ZM25.0001 35.4167C19.2709 35.4167 14.5834 30.7292 14.5834 25.0001C14.5834 19.2709 19.2709 14.5834 25.0001 14.5834C30.7292 14.5834 35.4167 19.2709 35.4167 25.0001C35.4167 30.7292 30.7292 35.4167 25.0001 35.4167ZM36.4584 15.6251C35.3126 15.6251 34.3751 14.6876 34.3751 13.5417C34.3751 12.3959 35.3126 11.4584 36.4584 11.4584C37.6043 11.4584 38.5418 12.3959 38.5418 13.5417C38.5418 14.6876 37.6043 15.6251 36.4584 15.6251Z" fill="white"/>
</g>
<defs>
<clipPath id="clip0_21_677">
<rect width="50" height="50" fill="white"/>
</clipPath>
</defs>
</svg>
