<svg width="42" height="42" viewBox="0 0 42 42" fill="none" xmlns="http://www.w3.org/2000/svg">
<path fill-rule="evenodd" clip-rule="evenodd" d="M33.1131 19.0312H12.1091C11.0224 19.0312 10.1404 19.9132 10.1404 21C10.1404 22.0867 11.0224 22.9687 12.1091 22.9687H33.159L29.0719 27.0559C28.3041 27.8237 28.3041 29.0719 29.0719 29.8397C29.841 30.6088 31.0879 30.6088 31.857 29.8397C31.857 29.8397 35.2262 26.4705 37.4246 24.272C39.2188 22.4779 39.2188 19.5694 37.4246 17.7752L31.857 12.2062C31.0879 11.4384 29.841 11.4384 29.0719 12.2062C28.3041 12.9754 28.3041 14.2222 29.0719 14.9914L33.1131 19.0312Z" fill="#361E05" stroke="#361E05" stroke-miterlimit="2" stroke-linejoin="round"/>
<path fill-rule="evenodd" clip-rule="evenodd" d="M26.25 31.5V25.5938H12.1091C9.57337 25.5938 7.51537 23.5357 7.51537 21C7.51537 18.4642 9.57337 16.4062 12.1091 16.4062H26.25V10.5C26.25 6.87619 23.3113 3.9375 19.6875 3.9375C16.8446 3.9375 13.3429 3.9375 10.5 3.9375C8.75962 3.9375 7.09013 4.62919 5.859 5.859C4.62919 7.09013 3.9375 8.75962 3.9375 10.5C3.9375 16.3262 3.9375 25.6738 3.9375 31.5C3.9375 33.2404 4.62919 34.9099 5.859 36.141C7.09013 37.3708 8.75962 38.0625 10.5 38.0625C13.3429 38.0625 16.8446 38.0625 19.6875 38.0625C21.4279 38.0625 23.0974 37.3708 24.3285 36.141C25.5583 34.9099 26.25 33.2404 26.25 31.5Z" fill="#361E05" stroke="#361E05" stroke-miterlimit="2" stroke-linejoin="round"/>
</svg>
