<svg width="41" height="38" viewBox="0 0 41 38" fill="none" xmlns="http://www.w3.org/2000/svg">
<path d="M33.21 14.4402C33.21 13.8106 32.6593 13.3002 31.98 13.3002C31.3008 13.3002 30.75 13.8106 30.75 14.4402H33.21ZM18.86 28.5002C18.1808 28.5002 17.63 29.0106 17.63 29.6402C17.63 30.2698 18.1808 30.7802 18.86 30.7802V28.5002ZM30.75 14.4402C30.75 15.0698 31.3008 15.5802 31.98 15.5802C32.6593 15.5802 33.21 15.0698 33.21 14.4402H30.75ZM18.86 7.22021C18.1808 7.22021 17.63 7.73062 17.63 8.36021C17.63 8.98981 18.1808 9.50021 18.86 9.50021V7.22021ZM31.98 15.5802C32.6593 15.5802 33.21 15.0698 33.21 14.4402C33.21 13.8106 32.6593 13.3002 31.98 13.3002V15.5802ZM18.86 13.3002C18.1808 13.3002 17.63 13.8106 17.63 14.4402C17.63 15.0698 18.1808 15.5802 18.86 15.5802V13.3002ZM10.25 19.0002C10.25 18.3706 9.69934 17.8602 9.02004 17.8602C8.34073 17.8602 7.79004 18.3706 7.79004 19.0002H10.25ZM18.86 30.7802C19.5393 30.7802 20.09 30.2698 20.09 29.6402C20.09 29.0106 19.5393 28.5002 18.86 28.5002V30.7802ZM7.79004 19.0002C7.79004 19.6298 8.34073 20.1402 9.02004 20.1402C9.69934 20.1402 10.25 19.6298 10.25 19.0002H7.79004ZM18.86 9.50021C19.5393 9.50021 20.09 8.98981 20.09 8.36021C20.09 7.73062 19.5393 7.22021 18.86 7.22021V9.50021ZM9.02004 17.8602C8.34073 17.8602 7.79004 18.3706 7.79004 19.0002C7.79004 19.6298 8.34073 20.1402 9.02004 20.1402V17.8602ZM18.86 20.1402C19.5393 20.1402 20.09 19.6298 20.09 19.0002C20.09 18.3706 19.5393 17.8602 18.86 17.8602V20.1402ZM20.09 19.0002C20.09 18.3706 19.5393 17.8602 18.86 17.8602C18.1808 17.8602 17.63 18.3706 17.63 19.0002H20.09ZM17.63 29.6402C17.63 30.2698 18.1808 30.7802 18.86 30.7802C19.5393 30.7802 20.09 30.2698 20.09 29.6402H17.63ZM17.63 19.0002C17.63 19.6298 18.1808 20.1402 18.86 20.1402C19.5393 20.1402 20.09 19.6298 20.09 19.0002H17.63ZM20.09 14.4402C20.09 13.8106 19.5393 13.3002 18.86 13.3002C18.1808 13.3002 17.63 13.8106 17.63 14.4402H20.09ZM20.09 8.36021C20.09 7.73062 19.5393 7.22021 18.86 7.22021C18.1808 7.22021 17.63 7.73062 17.63 8.36021H20.09ZM17.63 14.4402C17.63 15.0698 18.1808 15.5802 18.86 15.5802C19.5393 15.5802 20.09 15.0698 20.09 14.4402H17.63ZM30.75 14.4402V23.5602H33.21V14.4402H30.75ZM30.75 23.5602C30.75 26.2885 28.3637 28.5002 25.42 28.5002V30.7802C29.7224 30.7802 33.21 27.5478 33.21 23.5602H30.75ZM25.42 28.5002H18.86V30.7802H25.42V28.5002ZM33.21 14.4402C33.21 10.4527 29.7224 7.22021 25.42 7.22021V9.50021C28.3637 9.50021 30.75 11.7119 30.75 14.4402H33.21ZM25.42 7.22021H18.86V9.50021H25.42V7.22021ZM31.98 13.3002H18.86V15.5802H31.98V13.3002ZM7.79004 19.0002V23.5602H10.25V19.0002H7.79004ZM7.79004 23.5602C7.79004 27.5478 11.2777 30.7802 15.58 30.7802V28.5002C12.6364 28.5002 10.25 26.2885 10.25 23.5602H7.79004ZM15.58 30.7802H18.86V28.5002H15.58V30.7802ZM10.25 19.0002V14.4402H7.79004V19.0002H10.25ZM10.25 14.4402C10.25 11.7119 12.6364 9.50021 15.58 9.50021V7.22021C11.2777 7.22021 7.79004 10.4527 7.79004 14.4402H10.25ZM15.58 9.50021H18.86V7.22021H15.58V9.50021ZM9.02004 20.1402H18.86V17.8602H9.02004V20.1402ZM17.63 19.0002V29.6402H20.09V19.0002H17.63ZM20.09 19.0002V14.4402H17.63V19.0002H20.09ZM17.63 8.36021V14.4402H20.09V8.36021H17.63Z" fill="#EFB135"/>
<path d="M33.21 14.4402C33.21 13.8106 32.6593 13.3002 31.98 13.3002M33.21 14.4402H30.75M33.21 14.4402C33.21 15.0698 32.6593 15.5802 31.98 15.5802M33.21 14.4402V23.5602M33.21 14.4402C33.21 10.4527 29.7224 7.22021 25.42 7.22021M31.98 13.3002C31.3008 13.3002 30.75 13.8106 30.75 14.4402M31.98 13.3002V15.5802M31.98 13.3002H18.86M30.75 14.4402C30.75 15.0698 31.3008 15.5802 31.98 15.5802M30.75 14.4402V23.5602M30.75 14.4402C30.75 11.7119 28.3637 9.50021 25.42 9.50021M18.86 28.5002C18.1808 28.5002 17.63 29.0106 17.63 29.6402M18.86 28.5002V30.7802M18.86 28.5002C19.5393 28.5002 20.09 29.0106 20.09 29.6402M18.86 28.5002H25.42M18.86 28.5002H15.58M17.63 29.6402C17.63 30.2698 18.1808 30.7802 18.86 30.7802M17.63 29.6402H20.09M17.63 29.6402V19.0002M18.86 30.7802C19.5393 30.7802 20.09 30.2698 20.09 29.6402M18.86 30.7802H25.42M18.86 30.7802H15.58M31.98 15.5802H18.86M18.86 7.22021C18.1808 7.22021 17.63 7.73062 17.63 8.36021M18.86 7.22021V9.50021M18.86 7.22021C19.5393 7.22021 20.09 7.73062 20.09 8.36021M18.86 7.22021H25.42M18.86 7.22021H15.58M17.63 8.36021C17.63 8.98981 18.1808 9.50021 18.86 9.50021M17.63 8.36021H20.09M17.63 8.36021V14.4402M18.86 9.50021C19.5393 9.50021 20.09 8.98981 20.09 8.36021M18.86 9.50021H25.42M18.86 9.50021H15.58M18.86 13.3002C18.1808 13.3002 17.63 13.8106 17.63 14.4402M18.86 13.3002V15.5802M18.86 13.3002C19.5393 13.3002 20.09 13.8106 20.09 14.4402M17.63 14.4402C17.63 15.0698 18.1808 15.5802 18.86 15.5802M17.63 14.4402H20.09M17.63 14.4402V19.0002M18.86 15.5802C19.5393 15.5802 20.09 15.0698 20.09 14.4402M10.25 19.0002C10.25 18.3706 9.69934 17.8602 9.02004 17.8602M10.25 19.0002H7.79004M10.25 19.0002C10.25 19.6298 9.69934 20.1402 9.02004 20.1402M10.25 19.0002V23.5602M10.25 19.0002V14.4402M9.02004 17.8602C8.34073 17.8602 7.79004 18.3706 7.79004 19.0002M9.02004 17.8602V20.1402M9.02004 17.8602H18.86M7.79004 19.0002C7.79004 19.6298 8.34073 20.1402 9.02004 20.1402M7.79004 19.0002V23.5602M7.79004 19.0002V14.4402M20.09 29.6402V19.0002M9.02004 20.1402H18.86M20.09 8.36021V14.4402M18.86 20.1402C19.5393 20.1402 20.09 19.6298 20.09 19.0002M18.86 20.1402V17.8602M18.86 20.1402C18.1808 20.1402 17.63 19.6298 17.63 19.0002M20.09 19.0002C20.09 18.3706 19.5393 17.8602 18.86 17.8602M20.09 19.0002H17.63M20.09 19.0002V14.4402M18.86 17.8602C18.1808 17.8602 17.63 18.3706 17.63 19.0002M30.75 23.5602H33.21M30.75 23.5602C30.75 26.2885 28.3637 28.5002 25.42 28.5002M33.21 23.5602C33.21 27.5478 29.7224 30.7802 25.42 30.7802M25.42 28.5002V30.7802M25.42 7.22021V9.50021M7.79004 23.5602H10.25M7.79004 23.5602C7.79004 27.5478 11.2777 30.7802 15.58 30.7802M10.25 23.5602C10.25 26.2885 12.6364 28.5002 15.58 28.5002M15.58 30.7802V28.5002M10.25 14.4402H7.79004M10.25 14.4402C10.25 11.7119 12.6364 9.50021 15.58 9.50021M7.79004 14.4402C7.79004 10.4527 11.2777 7.22021 15.58 7.22021M15.58 9.50021V7.22021" stroke="#EFB135"/>
</svg>
