<svg width="56" height="54" viewBox="0 0 56 54" fill="none" xmlns="http://www.w3.org/2000/svg">
<path d="M45.36 20.5198C45.36 19.6251 44.6078 18.8998 43.68 18.8998C42.7522 18.8998 42 19.6251 42 20.5198H45.36ZM25.76 40.4998C24.8322 40.4998 24.08 41.2251 24.08 42.1198C24.08 43.0144 24.8322 43.7398 25.76 43.7398V40.4998ZM42 20.5198C42 21.4145 42.7522 22.1398 43.68 22.1398C44.6078 22.1398 45.36 21.4145 45.36 20.5198H42ZM25.76 10.2598C24.8322 10.2598 24.08 10.9851 24.08 11.8798C24.08 12.7745 24.8322 13.4998 25.76 13.4998V10.2598ZM43.68 22.1398C44.6078 22.1398 45.36 21.4145 45.36 20.5198C45.36 19.6251 44.6078 18.8998 43.68 18.8998V22.1398ZM25.76 18.8998C24.8322 18.8998 24.08 19.6251 24.08 20.5198C24.08 21.4145 24.8322 22.1398 25.76 22.1398V18.8998ZM14 26.9998C14 26.1051 13.2478 25.3798 12.32 25.3798C11.3922 25.3798 10.64 26.1051 10.64 26.9998H14ZM25.76 43.7398C26.6878 43.7398 27.44 43.0144 27.44 42.1198C27.44 41.2251 26.6878 40.4998 25.76 40.4998V43.7398ZM10.64 26.9998C10.64 27.8944 11.3922 28.6198 12.32 28.6198C13.2478 28.6198 14 27.8944 14 26.9998H10.64ZM25.76 13.4998C26.6878 13.4998 27.44 12.7745 27.44 11.8798C27.44 10.9851 26.6878 10.2598 25.76 10.2598V13.4998ZM12.32 25.3798C11.3922 25.3798 10.64 26.1051 10.64 26.9998C10.64 27.8944 11.3922 28.6198 12.32 28.6198V25.3798ZM25.76 28.6198C26.6878 28.6198 27.44 27.8944 27.44 26.9998C27.44 26.1051 26.6878 25.3798 25.76 25.3798V28.6198ZM27.44 26.9998C27.44 26.1051 26.6878 25.3798 25.76 25.3798C24.8322 25.3798 24.08 26.1051 24.08 26.9998H27.44ZM24.08 42.1198C24.08 43.0144 24.8322 43.7398 25.76 43.7398C26.6878 43.7398 27.44 43.0144 27.44 42.1198H24.08ZM24.08 26.9998C24.08 27.8944 24.8322 28.6198 25.76 28.6198C26.6878 28.6198 27.44 27.8944 27.44 26.9998H24.08ZM27.44 20.5198C27.44 19.6251 26.6878 18.8998 25.76 18.8998C24.8322 18.8998 24.08 19.6251 24.08 20.5198H27.44ZM27.44 11.8798C27.44 10.9851 26.6878 10.2598 25.76 10.2598C24.8322 10.2598 24.08 10.9851 24.08 11.8798H27.44ZM24.08 20.5198C24.08 21.4145 24.8322 22.1398 25.76 22.1398C26.6878 22.1398 27.44 21.4145 27.44 20.5198H24.08ZM42 20.5198V33.4798H45.36V20.5198H42ZM42 33.4798C42 37.3568 38.7406 40.4998 34.72 40.4998V43.7398C40.5964 43.7398 45.36 39.1463 45.36 33.4798H42ZM34.72 40.4998H25.76V43.7398H34.72V40.4998ZM45.36 20.5198C45.36 14.8533 40.5964 10.2598 34.72 10.2598V13.4998C38.7406 13.4998 42 16.6427 42 20.5198H45.36ZM34.72 10.2598H25.76V13.4998H34.72V10.2598ZM43.68 18.8998H25.76V22.1398H43.68V18.8998ZM10.64 26.9998V33.4798H14V26.9998H10.64ZM10.64 33.4798C10.64 39.1463 15.4037 43.7398 21.28 43.7398V40.4998C17.2594 40.4998 14 37.3568 14 33.4798H10.64ZM21.28 43.7398H25.76V40.4998H21.28V43.7398ZM14 26.9998V20.5198H10.64V26.9998H14ZM14 20.5198C14 16.6427 17.2594 13.4998 21.28 13.4998V10.2598C15.4037 10.2598 10.64 14.8533 10.64 20.5198H14ZM21.28 13.4998H25.76V10.2598H21.28V13.4998ZM12.32 28.6198H25.76V25.3798H12.32V28.6198ZM24.08 26.9998V42.1198H27.44V26.9998H24.08ZM27.44 26.9998V20.5198H24.08V26.9998H27.44ZM24.08 11.8798V20.5198H27.44V11.8798H24.08Z" fill="#361E05"/>
<path d="M45.36 20.5198C45.36 19.6251 44.6078 18.8998 43.68 18.8998M45.36 20.5198H42M45.36 20.5198C45.36 21.4145 44.6078 22.1398 43.68 22.1398M45.36 20.5198V33.4798M45.36 20.5198C45.36 14.8533 40.5964 10.2598 34.72 10.2598M43.68 18.8998C42.7522 18.8998 42 19.6251 42 20.5198M43.68 18.8998V22.1398M43.68 18.8998H25.76M42 20.5198C42 21.4145 42.7522 22.1398 43.68 22.1398M42 20.5198V33.4798M42 20.5198C42 16.6427 38.7406 13.4998 34.72 13.4998M25.76 40.4998C24.8322 40.4998 24.08 41.2251 24.08 42.1198M25.76 40.4998V43.7398M25.76 40.4998C26.6878 40.4998 27.44 41.2251 27.44 42.1198M25.76 40.4998H34.72M25.76 40.4998H21.28M24.08 42.1198C24.08 43.0144 24.8322 43.7398 25.76 43.7398M24.08 42.1198H27.44M24.08 42.1198V26.9998M25.76 43.7398C26.6878 43.7398 27.44 43.0144 27.44 42.1198M25.76 43.7398H34.72M25.76 43.7398H21.28M43.68 22.1398H25.76M25.76 10.2598C24.8322 10.2598 24.08 10.9851 24.08 11.8798M25.76 10.2598V13.4998M25.76 10.2598C26.6878 10.2598 27.44 10.9851 27.44 11.8798M25.76 10.2598H34.72M25.76 10.2598H21.28M24.08 11.8798C24.08 12.7745 24.8322 13.4998 25.76 13.4998M24.08 11.8798H27.44M24.08 11.8798V20.5198M25.76 13.4998C26.6878 13.4998 27.44 12.7745 27.44 11.8798M25.76 13.4998H34.72M25.76 13.4998H21.28M25.76 18.8998C24.8322 18.8998 24.08 19.6251 24.08 20.5198M25.76 18.8998V22.1398M25.76 18.8998C26.6878 18.8998 27.44 19.6251 27.44 20.5198M24.08 20.5198C24.08 21.4145 24.8322 22.1398 25.76 22.1398M24.08 20.5198H27.44M24.08 20.5198V26.9998M25.76 22.1398C26.6878 22.1398 27.44 21.4145 27.44 20.5198M14 26.9998C14 26.1051 13.2478 25.3798 12.32 25.3798M14 26.9998H10.64M14 26.9998C14 27.8944 13.2478 28.6198 12.32 28.6198M14 26.9998V33.4798M14 26.9998V20.5198M12.32 25.3798C11.3922 25.3798 10.64 26.1051 10.64 26.9998M12.32 25.3798V28.6198M12.32 25.3798H25.76M10.64 26.9998C10.64 27.8944 11.3922 28.6198 12.32 28.6198M10.64 26.9998V33.4798M10.64 26.9998V20.5198M27.44 42.1198V26.9998M12.32 28.6198H25.76M27.44 11.8798V20.5198M25.76 28.6198C26.6878 28.6198 27.44 27.8944 27.44 26.9998M25.76 28.6198V25.3798M25.76 28.6198C24.8322 28.6198 24.08 27.8944 24.08 26.9998M27.44 26.9998C27.44 26.1051 26.6878 25.3798 25.76 25.3798M27.44 26.9998H24.08M27.44 26.9998V20.5198M25.76 25.3798C24.8322 25.3798 24.08 26.1051 24.08 26.9998M42 33.4798H45.36M42 33.4798C42 37.3568 38.7406 40.4998 34.72 40.4998M45.36 33.4798C45.36 39.1463 40.5964 43.7398 34.72 43.7398M34.72 40.4998V43.7398M34.72 10.2598V13.4998M10.64 33.4798H14M10.64 33.4798C10.64 39.1463 15.4037 43.7398 21.28 43.7398M14 33.4798C14 37.3568 17.2594 40.4998 21.28 40.4998M21.28 43.7398V40.4998M14 20.5198H10.64M14 20.5198C14 16.6427 17.2594 13.4998 21.28 13.4998M10.64 20.5198C10.64 14.8533 15.4037 10.2598 21.28 10.2598M21.28 13.4998V10.2598" stroke="#361E05"/>
</svg>
