<svg width="30" height="30" viewBox="0 0 30 30" fill="none" xmlns="http://www.w3.org/2000/svg">
<g clip-path="url(#clip0_29_1057)">
<path d="M25.0937 5.11352H19.7251L22.3709 2.46766C22.7856 2.05293 22.7856 1.37999 22.3709 0.966196C21.9562 0.55147 21.2842 0.55147 20.8685 0.966196L16.7212 5.11352H13.2788L9.13148 0.966196C8.71582 0.55147 8.04381 0.55147 7.63002 0.966196C7.21435 1.38004 7.21435 2.05293 7.63002 2.46766L10.2759 5.11352H4.90629C2.19727 5.11352 0 7.30991 0 10.0199V24.4385C0 27.1485 2.19727 29.3448 4.90629 29.3448H25.0937C27.8036 29.3448 29.9999 27.1485 29.9999 24.4385V10.0199C30 7.30991 27.8037 5.11352 25.0937 5.11352ZM24.7119 21.5628C24.7119 23.1916 23.3908 24.5127 21.7621 24.5127H8.23793C6.6092 24.5127 5.28809 23.1916 5.28809 21.5628V12.8946C5.28809 11.2659 6.6092 9.94569 8.23793 9.94569H21.7621C23.3909 9.94569 24.712 11.2659 24.712 12.8946V21.5628H24.7119Z" fill="white"/>
</g>
<defs>
<clipPath id="clip0_29_1057">
<rect width="30" height="30" fill="white"/>
</clipPath>
</defs>
</svg>
