<svg width="30" height="30" viewBox="0 0 30 30" fill="none" xmlns="http://www.w3.org/2000/svg">
<g clip-path="url(#clip0_20_1506)">
<path d="M22.4963 11.25C22.4963 15.3919 19.1419 18.75 15 18.75C15 16.6809 13.3191 15 11.25 15H7.49625C3.75 15 0 12.8906 0 7.5C0 1.99219 3.75 0 7.49625 0H15C18.75 0 22.4963 2.32406 22.4963 7.5V11.25Z" fill="#361E05"/>
<path d="M24.3562 11.4497C24.2465 16.5235 20.0981 20.625 15 20.625H13.125V18.75C13.125 17.715 12.2831 16.875 11.25 16.875H7.68653C7.56934 17.4553 7.49622 18.076 7.49622 18.75V22.5C7.49622 26.6419 10.8581 30 15 30C15 27.9272 16.6809 26.25 18.75 26.25H22.4962C26.25 26.25 30 24.1406 30 18.75C30 14.1628 27.389 12.0375 24.3562 11.4497Z" fill="#361E05"/>
</g>
<defs>
<clipPath id="clip0_20_1506">
<rect width="30" height="30" fill="white"/>
</clipPath>
</defs>
</svg>
