<svg width="48" height="49" viewBox="0 0 48 49" fill="none" xmlns="http://www.w3.org/2000/svg">
<g clip-path="url(#clip0_21_590)">
<path d="M44.8927 29.7843C44.0844 28.7528 42.9165 27.0013 44.0844 26.3817C44.5701 26.1236 45.1763 26.3557 45.3461 26.7997C45.4791 27.1448 45.0941 27.6186 45.0941 27.6186C44.0845 27.3095 44.0023 28.6571 44.8928 28.6493C45.5067 28.6445 46.9121 27.6186 46.4065 25.8656C45.9025 24.1132 43.7933 23.7274 42.4687 24.3196C39.5289 25.6341 40.6508 28.5983 41.6603 29.9906C43.8494 33.0057 41.8523 38.9599 34.3077 38.9599C29.2319 38.9599 26.5457 38.9599 25.3285 38.9599V35.7643H36.4177C31.8174 22.0762 37.1845 11.9993 37.1845 11.9993H25.3284V11.0353H40.3985V9.9396H25.3284V6.43964C26.949 5.06075 29.3524 5.43562 31.5438 5.15569C34.7763 4.74388 35.0452 1.71937 35.0452 1.71937C35.0452 1.71937 33.0253 3.09357 30.3322 1.71937C28.1377 0.599264 26.0316 1.21339 25.3285 1.47935V1.38987H23.9969V9.9396H10.6174V11.0353H23.9969V11.9993H13.8022C13.8022 11.9993 8.436 22.0762 13.0354 35.7643H14.5683H23.9969V38.9599C22.9889 38.9599 20.2957 38.9599 14.6743 38.9599C7.12969 38.9599 5.45231 33.2206 7.32263 29.9906C8.30681 28.2893 9.5355 25.4247 6.51431 24.3196C5.17575 23.8293 4.59422 24.3454 4.21613 23.9588C3.83803 23.572 4.74628 22.7217 4.74628 22.7217L4.51969 21.7939L2.71706 23.0481L0 25.0718L0.146719 25.8969H2.93672V26.421L1.48913 27.2838L1.86862 27.9795L3.76116 27.3615C3.76116 27.3615 4.82766 26.927 5.27644 27.0516C6.11006 27.2838 4.89759 28.753 4.09013 29.7844C-2.97966 38.804 3.31331 47.9293 10.0396 47.9293C16.765 47.9293 24.4911 47.9293 24.4911 47.9293C24.4911 47.9293 32.2178 47.9293 38.9432 47.9293C45.6696 47.9292 51.9617 38.8039 44.8927 29.7843Z" fill="#361E05"/>
</g>
<defs>
<clipPath id="clip0_21_590">
<rect width="48" height="49" fill="white"/>
</clipPath>
</defs>
</svg>
