<svg width="50" height="45" viewBox="0 0 50 45" fill="none" xmlns="http://www.w3.org/2000/svg">
<g clip-path="url(#clip0_21_670)">
<path fill-rule="evenodd" clip-rule="evenodd" d="M25 0C38.8075 0 50 10.3273 50 23.0691C50 33.2593 42.845 41.9039 32.9175 44.9572C31.65 45.1844 31.2 44.464 31.2 43.8497C31.2 43.0892 31.23 40.6053 31.23 37.5183C31.23 35.3673 30.43 33.9634 29.5325 33.2479C35.1 32.6764 40.95 30.7255 40.95 21.865C40.95 19.345 39.98 17.2886 38.375 15.6731C38.635 15.0903 39.4925 12.7439 38.13 9.56689C38.13 9.56689 36.035 8.94875 31.2625 11.9323C29.265 11.4215 27.125 11.1645 25 11.1555C22.875 11.1645 20.7375 11.4215 18.7425 11.9323C13.965 8.94875 11.865 9.56689 11.865 9.56689C10.5075 12.7439 11.365 15.0903 11.6225 15.6731C10.025 17.2886 9.04751 19.345 9.04751 21.865C9.04751 30.703 14.885 32.6839 20.4375 33.2666C19.7225 33.8426 19.075 34.8587 18.85 36.3505C17.425 36.94 13.805 37.9602 11.575 34.4344C11.575 34.4344 10.2525 32.2179 7.7425 32.0559C7.7425 32.0559 5.305 32.0268 7.5725 33.4578C7.5725 33.4578 9.21 34.1665 10.3475 36.8328C10.3475 36.8328 11.815 40.9502 18.77 39.5552C18.7825 41.4834 18.805 43.3007 18.805 43.8497C18.805 44.4595 18.345 45.1731 17.0975 44.9594C7.16249 41.9106 0 33.2616 0 23.0691C0 10.3273 11.195 0 25 0Z" fill="white"/>
</g>
<defs>
<clipPath id="clip0_21_670">
<rect width="50" height="45" fill="white"/>
</clipPath>
</defs>
</svg>
