<svg width="35" height="35" viewBox="0 0 35 35" fill="none" xmlns="http://www.w3.org/2000/svg">
<path d="M7.29167 24.7916H14.5833C16.1942 24.7916 17.5 26.0974 17.5 27.7083V14.5833C17.5 10.4585 17.5 8.39613 16.2186 7.11472C14.9371 5.83331 12.8748 5.83331 8.75 5.83331H7.29167C5.91674 5.83331 5.22928 5.83331 4.80213 6.26044C4.375 6.68759 4.375 7.37505 4.375 8.74998V21.875C4.375 23.2499 4.375 23.9374 4.80213 24.3645C5.22928 24.7916 5.91674 24.7916 7.29167 24.7916Z" fill="#361E05"/>
<path d="M27.7083 24.7916H20.4167C18.8058 24.7916 17.5 26.0974 17.5 27.7083V14.5833C17.5 10.4585 17.5 8.39613 18.7814 7.11472C20.0629 5.83331 22.1253 5.83331 26.25 5.83331H27.7083C29.0833 5.83331 29.7707 5.83331 30.1979 6.26044C30.625 6.68759 30.625 7.37505 30.625 8.74998V21.875C30.625 23.2499 30.625 23.9374 30.1979 24.3645C29.7707 24.7916 29.0833 24.7916 27.7083 24.7916Z" fill="#361E05"/>
</svg>
