<svg width="40" height="40" viewBox="0 0 40 40" fill="none" xmlns="http://www.w3.org/2000/svg">
<path d="M29.8825 25.9375C31.5237 26.8363 32.4612 28.4375 32.3437 30.0388C32.265 31.015 32.2262 31.055 30.9762 31.2113C30.195 31.3288 25.2725 31.3675 20.195 31.3675C14.4525 31.3675 8.43746 31.25 8.00746 31.1325C6.28871 30.7025 7.22621 27.5775 9.49246 26.0938C11.25 24.9613 14.8437 23.2425 15.8212 23.0463C17.15 22.7725 17.3062 21.9525 15.8212 19.2963C15.47 18.71 15.0787 16.9138 15.04 15.0388C15.0012 11.9913 15.5875 9.92126 18.2437 8.90626C18.7912 8.71126 19.3375 8.63251 19.845 8.63251C21.6025 8.63251 23.2437 9.60876 23.9075 11.055C24.8837 12.9688 24.4937 18.0863 23.4775 19.9225C22.305 21.9925 22.4225 22.6575 23.7125 23.0088C24.5725 23.2438 27.2287 24.4938 29.885 25.9388L29.8825 25.9375ZM8.63246 24.7663C8.00746 25.1963 7.42121 25.7425 6.95246 26.29C5.46746 26.29 4.33496 26.2513 4.21746 26.2113C3.24121 25.9763 3.78746 24.18 5.07746 23.3988C6.05371 22.7738 8.04621 21.7975 8.59371 21.68C9.29746 21.5238 9.45371 21.0938 8.59371 19.61C8.39871 19.2975 8.16371 18.2813 8.16371 17.2275C8.12496 15.5088 8.47621 14.3363 9.96121 13.8288C11.2112 13.36 12.6175 13.9463 13.125 15.0013C13.6325 16.095 13.36 18.9075 12.8125 19.9238C12.1875 21.135 12.305 21.4475 13.0075 21.6425C13.1637 21.6813 13.4762 21.8375 13.9062 22.0338C12.1875 22.7375 9.84371 24.0263 8.63246 24.7688V24.7663ZM34.3362 23.2813C35.2737 23.7888 35.7812 24.6488 35.7037 25.5475C35.665 26.095 35.665 26.1338 34.9612 26.2113C34.7662 26.25 33.8675 26.29 32.695 26.29C32.1875 25.6263 31.4837 25.0013 30.625 24.5713C29.0237 23.6338 27.07 22.6175 25.625 21.9925C26.0162 21.8363 26.3675 21.7188 26.5237 21.68C27.2662 21.5238 27.3837 21.0938 26.5237 19.61C26.3675 19.2975 26.0937 18.2813 26.0937 17.2275C26.055 15.5088 26.3675 14.3363 27.8512 13.8288C29.14 13.36 30.5462 13.9463 31.015 15.0013C31.5225 16.095 31.3275 18.9075 30.78 19.9238C30.155 21.135 30.2325 21.4475 30.8975 21.6425C31.3662 21.7988 32.8512 22.5025 34.335 23.2838L34.3362 23.2813Z" fill="#361E05" stroke="#361E05"/>
</svg>
